{
    "asset" : {
        "generator" : "Khronos glTF Blender I/O v1.5.17",
        "version" : "2.0"
    },
    "scene" : 0,
    "scenes" : [
        {
            "name" : "Scene",
            "nodes" : [
                0
            ]
        }
    ],
    "nodes" : [
        {
            "mesh" : 0,
            "name" : "Base"
        }
    ],
    "materials" : [
        {
            "doubleSided" : true,
            "name" : "Base",
            "normalTexture" : {
                "index" : 0
            },
            "pbrMetallicRoughness" : {
                "baseColorTexture" : {
                    "index" : 1
                },
                "metallicRoughnessTexture" : {
                    "index" : 2
                }
            }
        }
    ],
    "meshes" : [
        {
            "name" : "Mesh",
            "primitives" : [
                {
                    "attributes" : {
                        "POSITION" : 0,
                        "NORMAL" : 1,
                        "TEXCOORD_0" : 2
                    },
                    "indices" : 3,
                    "material" : 0
                }
            ]
        }
    ],
    "textures" : [
        {
            "sampler" : 0,
            "source" : 0
        },
        {
            "sampler" : 0,
            "source" : 1
        },
        {
            "sampler" : 0,
            "source" : 2
        }
    ],
    "images" : [
        {
            "mimeType" : "image/png",
            "name" : "Geo_Base_low_lambert1_Normal",
            "uri" : "Base_Texture/Geo_Base_low_lambert1_Normal.png"
        },
        {
            "mimeType" : "image/png",
            "name" : "Geo_Base_low_lambert1_BaseColor",
            "uri" : "Base_Texture/Geo_Base_low_lambert1_BaseColor.png"
        },
        {
            "mimeType" : "image/png",
            "name" : "Geo_Base_low_lambert1_Metallic-Geo_Base_low_lambert1_Roughness",
            "uri" : "Base_Texture/Geo_Base_low_lambert1_Metallic-Geo_Base_low_lambert1_Roughness.png"
        }
    ],
    "accessors" : [
        {
            "bufferView" : 0,
            "componentType" : 5126,
            "count" : 513,
            "max" : [
                9.114058494567871,
                6.515017509460449,
                9.102594375610352
            ],
            "min" : [
                -9.114059448242188,
                -6.515018463134766,
                -9.153474807739258
            ],
            "type" : "VEC3"
        },
        {
            "bufferView" : 1,
            "componentType" : 5126,
            "count" : 513,
            "type" : "VEC3"
        },
        {
            "bufferView" : 2,
            "componentType" : 5126,
            "count" : 513,
            "type" : "VEC2"
        },
        {
            "bufferView" : 3,
            "componentType" : 5123,
            "count" : 2280,
            "type" : "SCALAR"
        }
    ],
    "bufferViews" : [
        {
            "buffer" : 0,
            "byteLength" : 6156,
            "byteOffset" : 0
        },
        {
            "buffer" : 0,
            "byteLength" : 6156,
            "byteOffset" : 6156
        },
        {
            "buffer" : 0,
            "byteLength" : 4104,
            "byteOffset" : 12312
        },
        {
            "buffer" : 0,
            "byteLength" : 4560,
            "byteOffset" : 16416
        }
    ],
    "samplers" : [
        {
            "magFilter" : 9729,
            "minFilter" : 9987
        }
    ],
    "buffers" : [
        {
            "byteLength" : 20976,
            "uri" : "Mod_Base.bin"
        }
    ]
}
