{
    "asset" : {
        "generator" : "Khronos glTF Blender I/O v1.4.40",
        "version" : "2.0"
    },
    "scene" : 0,
    "scenes" : [
        {
            "name" : "Scene",
            "nodes" : [
                0
            ]
        }
    ],
    "nodes" : [
        {
            "mesh" : 0,
            "name" : "Cookie"
        }
    ],
    "materials" : [
        {
            "doubleSided" : true,
            "name" : "Cookie_Tex",
            "normalTexture" : {
                "index" : 0,
                "texCoord" : 0
            },
            "pbrMetallicRoughness" : {
                "baseColorTexture" : {
                    "index" : 1,
                    "texCoord" : 0
                },
                "metallicRoughnessTexture" : {
                    "index" : 2,
                    "texCoord" : 0
                }
            }
        }
    ],
    "meshes" : [
        {
            "name" : "Cookie",
            "primitives" : [
                {
                    "attributes" : {
                        "POSITION" : 0,
                        "NORMAL" : 1,
                        "TEXCOORD_0" : 2
                    },
                    "indices" : 3,
                    "material" : 0
                }
            ]
        }
    ],
    "textures" : [
        {
            "sampler" : 0,
            "source" : 0
        },
        {
            "sampler" : 0,
            "source" : 1
        },
        {
            "sampler" : 0,
            "source" : 2
        }
    ],
    "images" : [
        {
            "mimeType" : "image/png",
            "name" : "Geo_Cookie_low_lambert1_Normal",
            "uri" : "Cookie_Texture/Geo_Cookie_low_lambert1_Normal.png"
        },
        {
            "mimeType" : "image/png",
            "name" : "Geo_Cookie_low_lambert1_BaseColor",
            "uri" : "Cookie_Texture/Geo_Cookie_low_lambert1_BaseColor.png"
        },
        {
            "mimeType" : "image/png",
            "name" : "Geo_Cookie_low_lambert1_Metallic-Geo_Cookie_low_lambert1_Roughness",
            "uri" : "Cookie_Texture/Geo_Cookie_low_lambert1_Metallic-Geo_Cookie_low_lambert1_Roughness.png"
        }
    ],
    "accessors" : [
        {
            "bufferView" : 0,
            "componentType" : 5126,
            "count" : 1195,
            "max" : [
                2.625298261642456,
                1.812880039215088,
                0.47726866602897644
            ],
            "min" : [
                -2.6054818630218506,
                -1.812880039215088,
                -0.29773542284965515
            ],
            "type" : "VEC3"
        },
        {
            "bufferView" : 1,
            "componentType" : 5126,
            "count" : 1195,
            "type" : "VEC3"
        },
        {
            "bufferView" : 2,
            "componentType" : 5126,
            "count" : 1195,
            "type" : "VEC2"
        },
        {
            "bufferView" : 3,
            "componentType" : 5123,
            "count" : 5556,
            "type" : "SCALAR"
        }
    ],
    "bufferViews" : [
        {
            "buffer" : 0,
            "byteLength" : 14340,
            "byteOffset" : 0
        },
        {
            "buffer" : 0,
            "byteLength" : 14340,
            "byteOffset" : 14340
        },
        {
            "buffer" : 0,
            "byteLength" : 9560,
            "byteOffset" : 28680
        },
        {
            "buffer" : 0,
            "byteLength" : 11112,
            "byteOffset" : 38240
        }
    ],
    "samplers" : [
        {
            "magFilter" : 9729,
            "minFilter" : 9986
        }
    ],
    "buffers" : [
        {
            "byteLength" : 49352,
            "uri" : "Mod_Cookie.bin"
        }
    ]
}
