{
    "asset" : {
        "generator" : "Khronos glTF Blender I/O v1.5.17",
        "version" : "2.0"
    },
    "scene" : 0,
    "scenes" : [
        {
            "name" : "Scene",
            "nodes" : [
                0
            ]
        }
    ],
    "nodes" : [
        {
            "mesh" : 0,
            "name" : "Soldier"
        }
    ],
    "materials" : [
        {
            "doubleSided" : true,
            "name" : "Soldier_Tex",
            "normalTexture" : {
                "index" : 0
            },
            "pbrMetallicRoughness" : {
                "baseColorTexture" : {
                    "index" : 1
                },
                "metallicRoughnessTexture" : {
                    "index" : 2
                }
            }
        }
    ],
    "meshes" : [
        {
            "name" : "Soldier",
            "primitives" : [
                {
                    "attributes" : {
                        "POSITION" : 0,
                        "NORMAL" : 1,
                        "TEXCOORD_0" : 2
                    },
                    "indices" : 3,
                    "material" : 0
                }
            ]
        }
    ],
    "textures" : [
        {
            "sampler" : 0,
            "source" : 0
        },
        {
            "sampler" : 0,
            "source" : 1
        },
        {
            "sampler" : 0,
            "source" : 2
        }
    ],
    "images" : [
        {
            "mimeType" : "image/png",
            "name" : "Soldier_low_02_lambert1_Normal",
            "uri" : "Soldier_Texture/Soldier_low_02_lambert1_Normal.png"
        },
        {
            "mimeType" : "image/png",
            "name" : "Soldier_low_02_lambert1_BaseColor",
            "uri" : "Soldier_Texture/Soldier_low_02_lambert1_BaseColor.png"
        },
        {
            "mimeType" : "image/png",
            "name" : "Soldier_low_02_lambert1_Metallic-Soldier_low_02_lambert1_Roughness",
            "uri" : "Soldier_Texture/Soldier_low_02_lambert1_Metallic-Soldier_low_02_lambert1_Roughness.png"
        }
    ],
    "accessors" : [
        {
            "bufferView" : 0,
            "componentType" : 5126,
            "count" : 1360,
            "max" : [
                0.9793939590454102,
                1.9557890892028809,
                2.4518730640411377
            ],
            "min" : [
                -1.548076868057251,
                -1.9557892084121704,
                -4.5819621086120605
            ],
            "type" : "VEC3"
        },
        {
            "bufferView" : 1,
            "componentType" : 5126,
            "count" : 1360,
            "type" : "VEC3"
        },
        {
            "bufferView" : 2,
            "componentType" : 5126,
            "count" : 1360,
            "type" : "VEC2"
        },
        {
            "bufferView" : 3,
            "componentType" : 5123,
            "count" : 6414,
            "type" : "SCALAR"
        }
    ],
    "bufferViews" : [
        {
            "buffer" : 0,
            "byteLength" : 16320,
            "byteOffset" : 0
        },
        {
            "buffer" : 0,
            "byteLength" : 16320,
            "byteOffset" : 16320
        },
        {
            "buffer" : 0,
            "byteLength" : 10880,
            "byteOffset" : 32640
        },
        {
            "buffer" : 0,
            "byteLength" : 12828,
            "byteOffset" : 43520
        }
    ],
    "samplers" : [
        {
            "magFilter" : 9729,
            "minFilter" : 9987
        }
    ],
    "buffers" : [
        {
            "byteLength" : 56348,
            "uri" : "Mod_Soldier.bin"
        }
    ]
}
