{
    "asset" : {
        "generator" : "Khronos glTF Blender I/O v1.5.17",
        "version" : "2.0"
    },
    "scene" : 0,
    "scenes" : [
        {
            "name" : "Scene",
            "nodes" : [
                0
            ]
        }
    ],
    "nodes" : [
        {
            "mesh" : 0,
            "name" : "DomeChoco"
        }
    ],
    "materials" : [
        {
            "doubleSided" : true,
            "name" : "DomeChoco_Tex",
            "normalTexture" : {
                "index" : 0
            },
            "pbrMetallicRoughness" : {
                "baseColorTexture" : {
                    "index" : 1
                },
                "metallicRoughnessTexture" : {
                    "index" : 2
                }
            }
        }
    ],
    "meshes" : [
        {
            "name" : "DomeChoco",
            "primitives" : [
                {
                    "attributes" : {
                        "POSITION" : 0,
                        "NORMAL" : 1,
                        "TEXCOORD_0" : 2
                    },
                    "indices" : 3,
                    "material" : 0
                }
            ]
        }
    ],
    "textures" : [
        {
            "sampler" : 0,
            "source" : 0
        },
        {
            "sampler" : 0,
            "source" : 1
        },
        {
            "sampler" : 0,
            "source" : 2
        }
    ],
    "images" : [
        {
            "mimeType" : "image/png",
            "name" : "Mod_Dome_low_lambert1_Normal",
            "uri" : "DomeChoco_Texture/Mod_Dome_low_lambert1_Normal.png"
        },
        {
            "mimeType" : "image/png",
            "name" : "Mod_Dome_low_lambert1_BaseColor",
            "uri" : "DomeChoco_Texture/Mod_Dome_low_lambert1_BaseColor.png"
        },
        {
            "mimeType" : "image/png",
            "name" : "Mod_Dome_low_lambert1_Metallic-Mod_Dome_low_lambert1_Roughness",
            "uri" : "DomeChoco_Texture/Mod_Dome_low_lambert1_Metallic-Mod_Dome_low_lambert1_Roughness.png"
        }
    ],
    "accessors" : [
        {
            "bufferView" : 0,
            "componentType" : 5126,
            "count" : 658,
            "max" : [
                3.439873695373535,
                2.6962714195251465,
                3.463945150375366
            ],
            "min" : [
                -3.439873695373535,
                -2.744935989379883,
                -3.4398741722106934
            ],
            "type" : "VEC3"
        },
        {
            "bufferView" : 1,
            "componentType" : 5126,
            "count" : 658,
            "type" : "VEC3"
        },
        {
            "bufferView" : 2,
            "componentType" : 5126,
            "count" : 658,
            "type" : "VEC2"
        },
        {
            "bufferView" : 3,
            "componentType" : 5123,
            "count" : 3420,
            "type" : "SCALAR"
        }
    ],
    "bufferViews" : [
        {
            "buffer" : 0,
            "byteLength" : 7896,
            "byteOffset" : 0
        },
        {
            "buffer" : 0,
            "byteLength" : 7896,
            "byteOffset" : 7896
        },
        {
            "buffer" : 0,
            "byteLength" : 5264,
            "byteOffset" : 15792
        },
        {
            "buffer" : 0,
            "byteLength" : 6840,
            "byteOffset" : 21056
        }
    ],
    "samplers" : [
        {
            "magFilter" : 9729,
            "minFilter" : 9987
        }
    ],
    "buffers" : [
        {
            "byteLength" : 27896,
            "uri" : "Mod_DomeChoco.bin"
        }
    ]
}
